# xmcd
#
# Track frame offsets:
#	150
#	9744
#	27066
#	38189
#	53280
#	69596
#	85729
#	96295
#	110795
#	125984
#	138824
#	153085
#	173146
#	189569
#	203287
#	218849
#	233206
#	245856
#	262829
#	281100
#
# Disc length: 3932 seconds
#
# Revision: 1
# Processed by: cddbd v1.5.2PL0 Copyright (c) Steve Scherf et al.
# Submitted via: audiograbber 1.83.01
#
DISCID=130f5a14
DTITLE=Various Artist - CDX Volume 1032 (November 5, 2012)
DYEAR=2012
DGENRE=Country
TTITLE0=Lady Antebellum - A Holly Jolly Christmas
TTITLE1=Blake Shelton - Home (featuring Michael Buble)
TTITLE2=Toby Keith - Rockin' Around The Christmas Tree
TTITLE3=Scotty McCreery - Jingle Bells
TTITLE4=Scotty McCreery - Santa Claus Is Back In Town
TTITLE5=Scotty McCreery - Christmas In Heaven
TTITLE6=Erica Nicole - Come On A Sleigh Ride
TTITLE7=Phil Vassar - Merry Christmas Darling
TTITLE8=Phil Vassar - Santa's Gone Hollywood 
TTITLE9=Clinton Gregory - Peace On Earth Again
TTITLE10=Mike Aiken - Almost Christmas 
TTITLE11=Charlie Monk - Andy and Opie Christmas
TTITLE12=High Valley - Away In A Manger
TTITLE13=Thomas K. White - Christmas Day 
TTITLE14=Paul Parr - Christmas In The Desert
TTITLE15=Steve Free - Christmas In The Valley 
TTITLE16=Freddie Hart - Christmas Is For Jesus 
TTITLE17=Tobi Gordon - Follow The Star
TTITLE18=Gary Curtis - If Everyday Was Like Christmas
TTITLE19=Craig Morrison - Santa Claus Boogie
EXTD=
EXTT0=
EXTT1=
EXTT2=
EXTT3=
EXTT4=
EXTT5=
EXTT6=
EXTT7=
EXTT8=
EXTT9=
EXTT10=
EXTT11=
EXTT12=
EXTT13=
EXTT14=
EXTT15=
EXTT16=
EXTT17=
EXTT18=
EXTT19=
PLAYORDER=
